PathFileType	4	(X/Y/Z)	C:\Users\avatar\Documents\avatar\mocap1\10002-20130731010438-Unnamed.trc
DataRate	CameraRate	NumFrames	NumMarkers	Units	OrigDataRate	OrigDataStartFrame	OrigNumFrames
400.00	400.00	      34	0	mm	400.00	821	      1313
Frame#	Time	
		

821	2.050				-154.70702	1167.94031	332.58673													793.68341	1575.82361	736.59448				482.53134	1772.06299	580.37213	-45.15741	1330.94995	-129.73138	1104.33948	1720.16077	-442.85052	-1535.35583	1592.71240	-292.98639							-172.11444	572.03119	678.61609	-443.56039	1205.62524	-3.41152	227.95795	1041.26489	298.35440	-414.31216	780.06293	508.79279	-1542.18481	1616.89685	-271.69482	
822	2.053	794.48120	1576.11414	736.08600	-152.49809	1168.51453	328.90997	56.73196	1280.12585	329.84988	-27.76069	681.40936	134.31621	33.60212	1285.53076	-197.69933	-68.22141	1333.27625	-144.08946				1055.11865	1719.43530	-411.62598													-1493.74927	1597.88599	-293.45676	-450.42401	1209.61438	-2.10775	-174.07410	571.33685	678.08179							-408.96652	781.30695	508.75134				-1496.30212	1619.72998	-270.86774	
823	2.055																			794.93378	1576.36060	735.17365				58.70183	1281.21729	328.91574	-29.69958	682.18213	135.30638	1011.11743	1718.49658	-383.79797	99.01554	1258.79443	-178.66841							-170.26503	572.74744	679.14337	-1445.64905	1603.59619	-293.56555	-459.50647	1211.72717	-2.11997	-404.81390	782.41125	507.79764	419.28677	1040.97778	338.84888	
824	2.057	795.52502	1576.72754	734.14490	-30.93755	682.29163	135.88445	-236.74744	1054.62000	264.83139	75.71492	1267.12000	-210.84245	419.30624	1042.22815	338.81339	-398.00836	1464.53125	537.31232				-1396.25854	1609.47144	-293.04120																			-167.43294	573.75592	679.78668							-398.80908	783.91040	507.59955	
825	2.060	796.00537	1576.96069	733.33307																-145.08162	1054.70190	203.90932				-32.18182	684.00031	136.71231	-236.02356	1055.47949	261.00757	47.91150	1275.99133	-243.19427	-1348.91187	1614.93652	-293.13977							-167.28308	573.62097	679.86383							-394.19699	784.96082	507.39267	
826	2.063	796.51306	1576.92468	732.46100	-144.66859	1057.80981	202.36519	-32.52966	1632.80762	257.13251	-235.28552	1056.57874	257.06171	21.84168	1286.14063	-274.47864																												-165.49644	573.86353	679.51141							-391.19043	785.51245	506.49405	
827	2.065	796.94794	1576.70972	731.59833													-145.77748	1059.07861	199.96782	-343.32892	1480.64526	519.03296	-234.90758	1057.48584	253.32555	-500.43542	1597.22607	163.11099	263.27399	1529.73560	189.80824	-469.85382	224.18501	595.80499										-163.29243	573.63159	679.28516							-389.12051	785.68604	506.07413	
828	2.068	797.15985	1576.58142	730.63220	386.78082	1711.83740	-9.98853	-234.34935	1058.44568	249.73860	-487.36078	1595.38831	185.78459	270.57718	1533.07141	192.49715																			250.10402	1515.49512	428.61932	-657.64819	247.71686	633.66260				-159.02527	574.27472	679.70477							-384.42712	786.99890	505.50146	
829	2.070																-1911.53442	1581.05408	-48.59436	-233.23022	1059.74329	246.08875	-16.77376	1624.77295	-8.26515	-116.44874	1618.45300	294.51959	-137.22052	693.17523	114.18642							-652.64966	248.03360	633.19653				-155.03833	574.78162	679.99371							-381.20456	787.94659	504.08633	
830	2.072	303.81024	1647.38184	528.86841	-685.50873	1574.74951	173.52864	-83.86983	208.99341	253.24831	-1889.03882	1577.71301	-38.64613	-138.74510	694.21313	115.91003																						-650.88324	247.73203	632.85229				-152.59760	574.11035	679.38489							-378.52902	788.38953	503.14987	
831	2.075																304.17563	1647.99768	528.32013	-1792.64941	1329.78870	189.49855	-687.51428	1569.81091	190.37354	-79.05557	1360.80750	-430.57837	-76.25127	211.11459	255.33719	103.16179	1357.68030	334.94690	347.10638	1495.95996	445.14066	-644.99274	246.39368	631.30737	-1866.04053	1574.24207	-28.86780	-149.91943	573.47235	679.14807	-139.99509	695.46710	117.81441	-89.84742	1500.58130	437.25760				-480.80371	612.02301	545.86469	
832	2.078	305.56348	1648.75439	528.02637	103.54790	1358.19580	333.97580	-316.16574	1460.60413	571.52814	-1208.02917	1447.55444	-462.77008	85.17115	1441.73584	-45.56124																						-642.08997	245.77234	630.58417				-145.87262	573.66541	679.23376				-80.94731	1500.54382	437.29083	950.27454	1422.37207	-227.77350				-6.06449	1066.21643	233.61472	-538.69946	161.20522	444.77322	-193.83501	1373.74707	-438.91000	
833	2.080																306.48688	1649.45349	527.67584	-1053.96497	231.55269	463.47934	-1903.38525	1338.04980	83.97358	1026.57825	1433.82568	-276.89581	103.92033	1358.47937	332.90247	-194.58859	576.57147	656.98364																-72.12726	1500.63135	437.19922							-11.29946	1066.37476	232.77756	
834	2.082	-1047.76379	230.96849	462.66058	103.67193	1358.79663	331.89310	-193.34535	574.81085	653.22797	-1537.83337	1568.87219	-81.71584	-795.58124	1634.73242	-272.30499																			-347.95874	1418.79956	-247.94057	-527.84216	1266.85547	78.92804	-687.61591	546.79492	-24.71693	-764.38788	307.80240	93.96938	137.64468	1357.16589	688.67224				-538.18243	162.65196	437.00110				-16.18992	1066.93542	232.16139	
835	2.085																-1041.30652	230.49220	461.90518	-297.60870	1075.95203	143.75969	103.83875	1359.09790	330.98215	-746.65192	1629.93408	-275.27350	-525.26843	1270.94568	82.15533	-687.22516	547.10840	-26.99426																-758.81268	310.71588	92.63348				137.44070	1355.05103	687.73260	-18.69759	1070.27905	233.07767	
836	2.088	-1038.06885	229.12250	460.25314	-982.86133	1391.78296	395.61926	-709.97327	1625.00049	-276.98746	41.84807	1349.47852	370.59842	-487.21619	1438.04138	-280.98029																			738.56891	1873.36133	677.49835	443.32623	1042.14429	331.62302	-301.36911	425.85001	49.37302	-521.92609	1274.96631	85.76810	-754.25323	313.90710	90.48620										-23.88594	1070.51599	232.21165	
837	2.090																-1031.84619	228.15846	458.87286	-657.99237	1619.89246	-277.23331	-1060.06250	1383.02832	374.66873	736.19659	1871.22754	678.94928	397.65570	1657.47681	652.89227	13.23101	1573.99487	114.25237																-302.87860	425.61984	51.07451	-70.32962	226.93155	260.92682	-521.46722	1276.70923	88.19813	-29.35289	1070.55090	231.54372	
838	2.092	-1028.95239	226.54042	456.86401	-767.07965	1531.88892	-217.56137	-350.18832	1623.36902	-152.65965	172.89368	1288.03528	258.19681	-571.56189	1452.74915	-271.72452																			-1126.83154	1374.99048	356.17136	733.14160	1868.50793	679.34113	397.82852	1656.68726	652.02997																-35.01706	1070.62866	230.75119	
839	2.095																-564.66931	1635.69849	-296.81808	152.94363	466.24759	172.91621	29.67414	240.32823	58.20336	397.78506	1655.77686	650.92932	455.84521	1039.72668	326.88052	-66.16838	230.72591	263.52087										-140.08386	38.75732	169.69489													-38.48471	1072.55505	229.89709	
840	2.098	-511.30817	1630.91089	-298.10455	28.13909	240.43205	61.78197	-53.52601	1557.29749	319.52292	398.16385	1654.93994	649.99164	-518.47546	730.47955	46.03170																			-69.90501	233.14462	263.77597	237.18315	1424.76367	786.14252	85.25287	222.04373	117.88898	
841	2.100																-520.53711	410.20224	574.67950	-459.91412	1628.30432	-298.51837	402.33157	1545.58167	76.67388	-544.93219	1602.60388	-278.55505	-516.17700	732.56964	45.20042	-63.15544	234.16190	265.55170										235.20734	1419.45825	785.48035	
842	2.102	-519.98761	408.64346	572.93579	-410.89578	1625.39197	-299.16965	375.72586	1540.97229	93.95248	-47.77957	1559.61560	320.05295	-916.98792	755.47809	206.48093																			-514.01404	734.26367	45.00508	-62.70050	235.16675	266.34305	234.22795	1415.73840	784.82996	
843	2.105																-518.26898	407.49536	570.49292	-366.48495	1622.79602	-300.07956	-44.71864	1560.75537	320.29214	-275.67822	1330.27087	540.97113	-378.46817	1654.75854	-309.97836	-373.71124	1079.41577	151.89473										232.93460	1411.23718	783.84943	
844	2.108	-367.29294	1619.75024	-285.31625	-1466.61426	792.59326	-155.93098	-375.48859	1079.87598	151.49860	230.60281	1406.52307	782.39343	
845	2.110													-653.11786	86.05238	548.87152	-515.15521	403.35242	565.05530	-1400.03577	1571.12683	114.25523	-271.76306	1656.20471	-312.50690	-265.83377	1325.30200	539.04736	-511.43787	105.42314	540.34650	-1459.42969	792.07764	-150.58032	-57.33971	238.42252	271.03018	-374.82083	1080.35742	151.12738	
846	2.112	-1921.33679	1542.58435	-42.36520	519.10858	1685.84888	-378.72543	-646.68414	88.50542	548.37524	-224.24057	1654.54346	-312.68604																												-929.19385	1585.04675	-346.29214	-146.80440	47.66076	191.96059	-449.66113	389.76517	603.60577	-1456.49475	792.34180	-146.92773	-60.78778	239.91754	271.90839	-376.64969	1081.91235	150.78413	
847	2.115													-641.78864	90.56759	548.37683	-1618.88977	1569.46704	-115.56152	80.27962	218.89977	121.28347																									-451.17877	388.62363	603.75739	-1446.33740	792.22369	-140.45377	-59.49518	239.74838	274.24799	-377.88538	1082.33496	151.02556	
848	2.118	-4070.57495	799.36047	-514.38776	-745.04718	1614.66284	-363.57458							-637.47278	92.47054	548.08624																																		-1440.40759	791.81384	-135.41667	-62.50356	241.79762	275.83673	
849	2.120							-703.60840	62.14258	531.84344	-146.76085	1673.36438	-290.58511				-4048.11475	795.66229	-513.11310	-535.46753	225.66164	576.59308	-279.48083	1315.10767	541.78070	-695.68463	1625.65222	-358.85672																						-1435.76599	791.74042	-131.53447	
850	2.122	-511.97125	1253.60291	41.04715	366.91171	188.43848	187.62726				-92.91664	1676.92273	-288.50095	-534.77057	223.36198	573.90155													-269.92642	1312.65845	540.13574																			-1429.20862	791.45990	-126.16767	
851	2.125							-408.97949	1352.47412	572.97687	-40.77934	1677.09338	-285.32129				-3288.68750	1500.38025	-683.37317	-974.13702	1553.73547	-80.11990	-533.56738	221.09312	570.94952	-161.57776	51.60268	203.40216																						-1422.52087	790.47693	-121.77745	
852	2.128	-1242.76074	1583.23901	0.45088	-469.74808	1650.89539	-361.40189				12.90872	1679.28662	-283.24817	-302.68042	1709.66394	-164.18524													-253.59158	1759.44287	446.24051	-383.59378	1084.74146	149.05205	-532.75293	219.63019	568.32404	-64.74767	242.59724	281.34781	-404.79666	1347.27100	572.55182	-994.79401	1558.31140	-53.72093				-1415.13489	790.19360	-118.76077	
853	2.130							2139.82813	1358.19495	1223.06177	84.28691	1694.05750	-296.76126				-336.78058	1709.23596	-125.08820	566.15442	1659.87354	604.94849	479.12888	1821.15894	652.27869	-409.22498	374.73413	604.86401				-383.41754	1085.44556	148.82903							-400.12527	1341.03979	571.44592	-1017.57990	1561.42004	-25.63668				-1407.65930	789.58856	-114.58050	
854	2.132	326.19955	1694.63867	459.21710	2133.64160	1355.08447	1221.26575				133.46762	1690.87683	-295.36859	-586.23474	210.03160	569.18988													-389.27335	1706.85376	-79.62885	-384.66595	1085.93933	148.38795	565.74207	1659.10095	604.61212	480.30688	1819.61279	651.14417				-1036.85510	1565.15601	3.31121	-408.50305	373.72202	603.04279	-1398.99036	790.23767	-110.29349	
